HIERARCHY
ROOT hip
{
	OFFSET 0.000000 0.000000 0.000000 
	CHANNELS 6 Xposition Yposition Zposition Xrotation Zrotation Yrotation
	JOINT abdomen
	{
		OFFSET 0.000000 3.402643 0.000000 
		CHANNELS 3 Xrotation Zrotation Yrotation
		JOINT chest
		{
			OFFSET 0.000000 8.438565 -0.680529 
			CHANNELS 3 Xrotation Zrotation Yrotation
			JOINT neck
			{
				OFFSET 0.000000 10.207942 -0.272212 
				CHANNELS 3 Xrotation Zrotation Yrotation
				JOINT head
				{
					OFFSET 0.000000 3.130431 0.000000 
					CHANNELS 3 Xrotation Zrotation Yrotation
					End Site
					{
						OFFSET 0.000000 3.130435 0.000000 
					}
				}
			}
			JOINT lCollar
			{
				OFFSET 3.470700 6.669187 -0.816635 
				CHANNELS 3 Yrotation Zrotation Xrotation
				JOINT lShldr
				{
					OFFSET 3.198488 0.000000 0.000000 
					CHANNELS 3 Zrotation Yrotation Xrotation
					JOINT lForeArm
					{
						OFFSET 10.139888 0.000000 0.000000 
						CHANNELS 3 Yrotation Zrotation Xrotation
						JOINT lHand
						{
							OFFSET 8.370511 0.000000 0.000000 
							CHANNELS 3 Zrotation Yrotation Xrotation
							End Site
							{
								OFFSET 4.083176 0.000000 0.000000 
							}
						}
					}
				}
			}
			JOINT rCollar
			{
				OFFSET -3.470700 6.669187 -0.816635 
				CHANNELS 3 Yrotation Zrotation Xrotation
				JOINT rShldr
				{
					OFFSET -3.198488 0.000000 0.000000 
					CHANNELS 3 Zrotation Yrotation Xrotation
					JOINT rForeArm
					{
						OFFSET -10.139888 0.000000 0.000000 
						CHANNELS 3 Yrotation Zrotation Xrotation
						JOINT rHand
						{
							OFFSET -8.370511 0.000000 0.000000 
							CHANNELS 3 Zrotation Yrotation Xrotation
							End Site
							{
								OFFSET -4.083176 0.000000 0.000000 
							}
						}
					}
				}
			}
		}
	}
	JOINT lThigh
	{
		OFFSET 5.308129 -1.633274 1.361059 
		CHANNELS 3 Xrotation Zrotation Yrotation
		JOINT lShin
		{
			OFFSET -2.041588 -20.007561 0.000000 
			CHANNELS 3 Xrotation Zrotation Yrotation
			JOINT lFoot
			{
				OFFSET 0.000000 -19.190928 -1.224953 
				CHANNELS 3 Xrotation Yrotation Zrotation
				End Site
				{
					OFFSET 0.000000 -2.449906 4.627600 
				}
			}
		}
	}
	JOINT rThigh
	{
		OFFSET -5.308129 -1.633274 1.361059 
		CHANNELS 3 Xrotation Zrotation Yrotation
		JOINT rShin
		{
			OFFSET 2.041588 -20.007561 0.000000 
			CHANNELS 3 Xrotation Zrotation Yrotation
			JOINT rFoot
			{
				OFFSET 0.000000 -19.190928 -1.224953 
				CHANNELS 3 Xrotation Yrotation Zrotation
				End Site
				{
					OFFSET 0.000000 -2.449906 4.627600 
				}
			}
		}
	}
}
MOTION
Frames: 13
Frame Time: 0.011111
-41.619774 52.416920 -1.624842 2.329376 1.654677 -14.192637 20.672100 -0.664493 -2.587273 -21.409081 0.432739 -0.767827 -16.029446 -8.527132 -1.295889 23.624804 12.894881 -3.169403 2.424333 -4.683778 1.783845 -72.495850 -33.248650 4.204586 -42.452843 5.587494 5.267415 8.524705 12.647240 -55.794323 -2.738486 -1.140572 2.095526 71.586594 24.423456 19.949366 48.913254 -7.451404 7.730202 -8.534408 -12.637552 25.179544 -1.473035 7.357759 -6.608573 21.287678 -5.722955 -3.698464 -28.180531 10.586801 3.003598 -4.133778 -2.381587 18.039486 23.596334 5.623506 3.976264 -20.901031 1.609644 3.266177 
-41.638721 52.413315 -1.616722 2.274101 1.712564 -14.044860 20.750820 -0.712554 -2.617377 -21.321114 0.394878 -0.765793 -16.242006 -8.431467 -1.265781 23.780432 12.776003 -3.130621 2.424333 -4.683778 1.783845 -72.469231 -33.376106 4.340580 -42.534462 5.613206 5.290739 8.524705 12.647240 -55.813854 -2.738486 -1.140572 2.095526 71.649529 24.558924 19.746372 48.882294 -7.443895 7.710884 -8.534408 -12.637552 24.681499 -1.384718 7.308712 -6.582315 21.209297 -5.712881 -3.689743 -28.027260 10.523492 2.928787 -4.102236 -2.420102 18.050695 23.658583 5.614501 3.979819 -20.999029 1.541587 3.216279 
-41.654667 52.407600 -1.601686 2.246857 1.739894 -13.926816 20.778929 -0.678826 -2.677731 -21.242882 0.346463 -0.783129 -16.434855 -8.345975 -1.207650 23.952002 12.681314 -3.012869 2.424333 -4.683778 1.783845 -72.471458 -33.463974 4.365486 -42.646626 5.649738 5.332038 8.524705 12.647240 -55.735729 -2.738486 -1.140572 2.095526 71.702560 24.694593 19.732651 48.736378 -7.406765 7.653733 -8.534408 -12.637552 24.788919 -1.395901 7.294411 -6.691087 21.280439 -5.711618 -3.696579 -28.160141 10.259238 2.852579 -4.019838 -2.460074 18.035137 23.606319 5.619509 4.005525 -21.056046 1.474056 3.188078 
-41.674511 52.400085 -1.594769 2.285089 1.591223 -13.883365 20.788715 -0.487099 -2.543943 -21.232962 0.268843 -0.770690 -16.463072 -8.311681 -1.222834 23.967237 12.612297 -3.041201 2.424333 -4.683778 1.783845 -72.500793 -33.443920 4.541975 -42.829876 5.705987 5.398062 8.524705 12.647240 -55.530655 -2.738486 -1.140572 2.095526 71.725342 24.811342 19.645458 48.580814 -7.370965 7.595281 -8.534408 -12.637552 24.661968 -1.452838 7.522432 -6.827956 21.338205 -5.723165 -3.703864 -28.514109 9.843320 2.796674 -3.959025 -2.264478 18.100607 23.606319 5.619510 4.005525 -21.084278 1.393843 3.162512 
-41.694054 52.394371 -1.593567 2.313707 1.479978 -13.858008 20.779589 -0.331053 -2.402382 -21.281702 0.220396 -0.739961 -16.515568 -8.391212 -1.169430 24.234701 12.717583 -2.925964 2.424333 -4.683778 1.783845 -72.487633 -33.317169 4.907466 -43.024509 5.774203 5.470267 8.524705 12.647240 -55.130260 -2.738486 -1.140572 2.095526 71.704994 24.792221 19.586172 48.455280 -7.336015 7.549008 -8.534408 -12.637552 24.437359 -1.512003 7.700539 -6.651753 21.371027 -5.712147 -3.714286 -28.358990 9.720646 2.681421 -3.921318 -2.108790 18.232780 23.606058 5.623533 3.986861 -21.123285 1.297637 3.138673 
-41.707588 52.385345 -1.594769 2.266851 1.554173 -13.806737 20.830023 -0.396800 -2.365522 -21.418453 0.238507 -0.731444 -16.427555 -8.437639 -1.069307 24.406239 12.727341 -2.706065 2.424333 -4.683778 1.783845 -72.502594 -33.121555 5.200924 -43.228313 5.833447 5.537653 8.524705 12.647240 -54.749405 -2.738486 -1.140572 2.095526 71.660675 24.607536 19.653128 48.372890 -7.318013 7.510102 -8.534408 -12.637552 24.779156 -1.483538 7.605580 -6.340888 21.400995 -5.712375 -3.726678 -27.956049 9.927064 2.643017 -3.894515 -2.186987 18.252758 23.596594 5.619490 3.994929 -21.152847 1.215076 3.077858 
-41.725636 52.382935 -1.590859 2.229783 1.580465 -13.718451 20.870512 -0.415682 -2.310856 -21.437933 0.209706 -0.710920 -16.294430 -8.348782 -1.037119 24.286512 12.578473 -2.637455 2.424333 -4.683778 1.783845 -72.461845 -33.083202 5.463647 -43.360828 5.873388 5.589259 8.524705 12.647240 -54.475964 -2.738486 -1.140572 2.095526 71.708618 24.538179 19.553137 48.133713 -7.257515 7.424636 -8.534408 -12.637552 25.775249 -1.532232 7.614860 -6.438599 21.441708 -5.712545 -3.720497 -28.057823 9.750860 2.601448 -3.865226 -2.196768 18.234756 23.638792 5.610326 3.996700 -21.233782 1.192752 3.066088 
-41.749992 52.394066 -1.585747 2.192904 1.645160 -13.609195 20.910898 -0.521384 -2.329919 -21.398876 0.210547 -0.701018 -16.296539 -8.189376 -1.011816 24.265341 12.407313 -2.554014 2.424333 -4.683778 1.783845 -72.393227 -33.123482 5.706124 -43.483654 5.914278 5.638782 8.524705 12.647240 -54.261116 -2.738486 -1.140572 2.095526 71.797966 24.536341 19.345465 48.455280 -7.336015 7.549008 -8.534408 -12.637552 24.437359 -1.678055 7.641212 -7.185122 21.444340 -5.703276 -3.709196 -28.747198 9.106045 2.544430 -3.851967 -2.225424 18.254833 23.718750 5.610562 4.013465 -21.330603 1.107615 3.027502 
-41.773449 52.373013 -1.583342 2.240940 1.575912 -13.542543 20.901533 -0.442838 -2.258307 -21.389040 0.171984 -0.689807 -16.289934 -8.061934 -0.957219 24.267666 12.270197 -2.417645 2.424333 -4.683778 1.783845 -72.322655 -33.085651 6.011631 -43.678623 5.980345 5.712731 8.524705 12.647240 -53.890030 -2.738486 -1.140572 2.095526 71.828964 24.584545 19.287912 48.414658 -7.329964 7.528297 -8.534408 -12.637552 23.988140 -1.571666 7.772093 -6.362166 21.444336 -5.703289 -3.709199 -28.001852 9.116159 2.324913 -3.880192 -2.079095 18.324137 23.798946 5.611101 4.021532 -21.361057 0.990331 2.978967 
-41.794502 52.359180 -1.580335 2.279491 1.582729 -13.482921 20.853710 -0.420354 -2.176163 -21.310926 0.173607 -0.670052 -16.315626 -8.000381 -0.880041 24.299431 12.098284 -2.269801 2.424333 -4.683778 1.783845 -72.353706 -33.133945 6.086034 -43.852810 6.034194 5.771102 8.524705 12.647240 -53.821667 -2.738486 -1.140572 2.095526 71.792175 24.702518 19.364668 48.320305 -7.301857 7.491649 -8.534408 -12.637552 24.056498 -1.640009 7.839623 -6.043319 21.471966 -5.712829 -3.723179 -27.775734 8.879453 2.137571 -3.950687 -2.030828 18.369499 23.899080 5.613669 4.020999 -21.415129 0.927506 2.964006 
-41.812244 52.352566 -1.572816 2.251665 1.602487 -13.414273 20.845724 -0.424804 -2.103399 -21.242466 0.116505 -0.648350 -16.292517 -7.954403 -0.794972 24.411516 11.955700 -2.103952 2.424333 -4.683778 1.783845 -72.314423 -33.154167 6.206697 -44.026844 6.088140 5.839616 8.524705 12.647240 -53.645885 -2.738486 -1.140572 2.095526 71.812271 24.711874 19.492311 48.237724 -7.284259 7.462611 -8.534408 -12.637552 24.495951 -1.804114 7.872664 -6.208572 21.565245 -5.702369 -3.739918 -27.922127 8.621466 2.076286 -3.959708 -2.020980 18.310247 24.041059 5.600964 4.069681 -21.514639 0.921932 2.940233 
-41.829086 52.334827 -1.557779 2.185808 1.623055 -13.346380 20.868032 -0.435784 -1.981387 -21.183720 0.030283 -0.616077 -16.338131 -7.895598 -0.722601 24.650789 11.796175 -1.949536 2.424333 -4.683778 1.783845 -72.253548 -33.106403 6.390821 -44.272438 6.159269 5.925546 8.524705 12.647240 -53.362682 -2.738486 -1.140572 2.095526 71.860451 24.652275 19.591690 48.132782 -7.250996 7.417421 -8.534408 -12.637552 25.345560 -1.610351 7.868876 -5.519948 21.645664 -5.702793 -3.756729 -27.400908 8.537649 1.910033 -3.909693 -2.030646 18.283810 24.122009 5.603604 4.039221 -21.618845 0.959368 2.965211 
-41.849834 52.314377 -1.547856 2.110488 1.562747 -13.261922 20.967152 -0.398956 -1.876005 -21.183655 -0.008120 -0.595279 -16.301828 -7.771895 -0.652831 24.761616 11.623040 -1.781781 2.424333 -4.683778 1.783845 -72.222496 -33.058105 6.448706 -44.477535 6.221373 6.002922 8.524705 12.647240 -53.206429 -2.738486 -1.140572 2.095526 71.897247 24.534296 19.661423 48.258034 -7.287349 7.472929 -8.534408 -12.637552 25.462749 -1.541158 7.982205 -5.130882 21.767040 -5.703418 -3.757649 -27.231426 8.212150 1.739843 -3.827462 -1.953032 18.191921 24.244162 5.590772 4.076382 -21.666399 0.979684 2.967390 
